<?xml version="1.0" encoding="UTF-8" standalone="no"?>
<!-- Uploaded to: SVG Repo, www.svgrepo.com, Generator: SVG Repo Mixer Tools -->

<svg
   xmlns:osb="http://www.openswatchbook.org/uri/2009/osb"
   xmlns:dc="http://purl.org/dc/elements/1.1/"
   xmlns:cc="http://creativecommons.org/ns#"
   xmlns:rdf="http://www.w3.org/1999/02/22-rdf-syntax-ns#"
   xmlns:svg="http://www.w3.org/2000/svg"
   xmlns="http://www.w3.org/2000/svg"
   xmlns:xlink="http://www.w3.org/1999/xlink"
   xmlns:sodipodi="http://sodipodi.sourceforge.net/DTD/sodipodi-0.dtd"
   xmlns:inkscape="http://www.inkscape.org/namespaces/inkscape"
   height="265.54239"
   width="281.94049"
   version="1.1"
   id="Capa_1"
   viewBox="0 0 81.07798 76.362354"
   xml:space="preserve"
   inkscape:version="0.48.4 r9939"
   sodipodi:docname="setup_anim2.svg"
   style="fill:#000000"><metadata
   id="metadata3005"><rdf:RDF><cc:Work
       rdf:about=""><dc:format>image/svg+xml</dc:format><dc:type
         rdf:resource="http://purl.org/dc/dcmitype/StillImage" /><dc:title /></cc:Work></rdf:RDF></metadata><defs
   id="defs3003"><linearGradient
     id="linearGradient3777"
     osb:paint="solid"><stop
       style="stop-color:#00d600;stop-opacity:1;"
       offset="0"
       id="stop3779" /></linearGradient><linearGradient
     id="linearGradient3775"
     osb:paint="solid"><stop
       style="stop-color:#ffffff;stop-opacity:1;"
       offset="0"
       id="stop3777" /></linearGradient><linearGradient
     inkscape:collect="always"
     xlink:href="#linearGradient3775"
     id="linearGradient3779"
     x1="0"
     y1="134.26825"
     x2="284.16989"
     y2="134.26825"
     gradientUnits="userSpaceOnUse" /><linearGradient
     inkscape:collect="always"
     xlink:href="#linearGradient3777"
     id="linearGradient3781"
     x1="75.175676"
     y1="218.23866"
     x2="170.82372"
     y2="218.23866"
     gradientUnits="userSpaceOnUse" /></defs><sodipodi:namedview
   pagecolor="#ffffff"
   bordercolor="#666666"
   borderopacity="1"
   objecttolerance="10"
   gridtolerance="10"
   guidetolerance="10"
   inkscape:pageopacity="0"
   inkscape:pageshadow="2"
   inkscape:window-width="1366"
   inkscape:window-height="705"
   id="namedview3001"
   showgrid="false"
   inkscape:zoom="0.6475"
   inkscape:cx="408.77992"
   inkscape:cy="172.99213"
   inkscape:window-x="-8"
   inkscape:window-y="-8"
   inkscape:window-maximized="1"
   inkscape:current-layer="Capa_1"
   inkscape:snap-object-midpoints="false"
   inkscape:snap-center="false"
   inkscape:snap-to-guides="true"
   fit-margin-bottom="100"
   fit-margin-top="100"
   fit-margin-left="10"
   fit-margin-right="10" />

<rect
   style="fill:url(#linearGradient3779);stroke:none;stroke-width:3.32500004999999990;stroke-linecap:butt;stroke-linejoin:miter;stroke-miterlimit:5;stroke-opacity:1;stroke-dasharray:none;stroke-dashoffset:0;fill-opacity:1;"
   id="rect3005"
   width="284.16989"
   height="268.72586"
   x="0"
   y="-0.094676718"
   transform="matrix(0.28757125,0,0,0.28757125,0,-1.6638046e-6)" /><g
   id="g3163"
   transform="matrix(0.28757125,0,0,0.28757125,2.8757125,28.419831)"><g
   id="_x37_7_Essential_Icons_72_">
         
	<path
   d="M 72.9,14.4 56,25.3 V 22 c 0,-4.4 -3.6,-8 -8,-8 H 8 c -4.4,0 -8,3.6 -8,8 v 32 c 0,4.4 3.6,8 8,8 h 40 c 4.4,0 8,-3.6 8,-8 v -3.3 l 16.9,10.9 c 1.9,1 3.1,-0.7 3.1,-1.7 V 16 c 0,-1 -1.1,-2.8 -3.1,-1.6 z M 52,54 c 0,2.2 -1.8,4 -4,4 H 8 C 5.8,58 4,56.2 4,54 V 22 c 0,-2.2 1.8,-4 4,-4 h 40 c 2.2,0 4,1.8 4,4 V 54 z M 72,56.3 56,46 V 30 L 72,19.7 v 36.6 z"
   id="Video_Camera"
   inkscape:connector-curvature="0" />
   
</g><g
   id="g3127">
</g><g
   id="g3129">
</g><g
   id="g3131">
</g><g
   id="g3133">
</g><g
   id="g3135">
</g><g
   id="g3137">
</g><g
   id="g3139">
</g><g
   id="g3141">
</g><g
   id="g3143">
</g><g
   id="g3145">
</g><g
   id="g3147">
</g><g
   id="g3149">
</g><g
   id="g3151">
</g><g
   id="g3153">
</g><g
   id="g3155">
</g>
<!--rotate this object around its own axis-->
     

     </g><g
   id="g2997"
   transform="matrix(0.10617875,0,0,0.10617875,53.775033,25.967596)">
	<g
   id="g7"><path
   d="M 228.579,83.315 196.432,42.057 C 188.615,32.025 176.838,26.272 164.12,26.272 h -21.204 c -2.939,0 -5.565,1.836 -6.574,4.597 -3.257,8.909 -11.822,14.895 -21.313,14.895 -9.491,0 -18.055,-5.986 -21.313,-14.895 -1.009,-2.761 -3.635,-4.597 -6.574,-4.597 H 65.937 c -12.717,0 -24.495,5.753 -32.312,15.786 L 1.479,83.315 c -1.397,1.793 -1.837,4.152 -1.179,6.328 0.658,2.176 2.331,3.897 4.488,4.615 l 44.558,14.845 v 87.682 c 0,3.866 3.134,7 7,7 h 117.366 c 3.866,0 7,-3.134 7,-7 V 109.103 L 225.27,94.258 c 2.157,-0.718 3.83,-2.439 4.488,-4.615 0.658,-2.176 0.218,-4.535 -1.179,-6.328 z m -47.867,11.032 v -10.29 c 0,-3.866 -3.134,-7 -7,-7 -3.866,0 -7,3.134 -7,7 V 189.785 H 63.345 V 84.057 c 0,-3.866 -3.134,-7 -7,-7 -3.866,0 -7,3.134 -7,7 v 10.29 L 18.609,84.107 44.668,50.663 C 49.814,44.059 57.565,40.272 65.937,40.272 h 16.681 c 6.295,11.832 18.761,19.491 32.41,19.491 13.649,0 26.115,-7.66 32.411,-19.491 h 16.681 c 8.371,0 16.123,3.787 21.269,10.39 l 26.06,33.445 -30.737,10.24 z"
   id="path2999"
   inkscape:connector-curvature="0" />
   <animateTransform
   repeatCount="indefinite"
   attributeName="transform"
   type="rotate"
   from="0 117.4 110"
   to="-30 117.4 110"
   begin="0"
   dur="3s"
   id="animateTransform11" />
</g>   
   
</g><path
   style="fill:url(#linearGradient3781);stroke:#000000;stroke-width:1px;stroke-linecap:butt;stroke-linejoin:miter;stroke-opacity:1;fill-opacity:1"
   d="m 75.675676,208.39953 24.710424,46.33205 27.79923,0 42.13839,-72.98584 -34.41638,0 -23.4551,40.62543 -8.68033,-15.03477 z"
   id="path3007"
   inkscape:connector-curvature="0"
   transform="matrix(0.28757125,0,0,0.28757125,0,-1.6638046e-6)" /></svg>